<svg xmlns="http://www.w3.org/2000/svg" xmlns:xlink="http://www.w3.org/1999/xlink" width="100" zoomAndPan="magnify" viewBox="0 0 75 74.999997" height="100" preserveAspectRatio="xMidYMid meet" version="1.2"><g id="0e89723dbe"><path style=" stroke:none;fill-rule:nonzero;fill:#5bc0eb;fill-opacity:1;" d="M 17.210938 47.949219 C 10.960938 42.34375 10.425781 31.996094 17.214844 25.789062 C 15.117188 23.828125 13.660156 21.484375 12.839844 18.710938 C 10.777344 11.742188 14.695312 3.664062 21.535156 1.171875 C 23.191406 0.566406 25.015625 0.140625 26.765625 0.113281 C 34.308594 0 41.851562 0.0234375 49.394531 0.078125 C 56.433594 0.128906 62.539062 5.347656 63.621094 12.304688 C 64.386719 17.203125 63.097656 21.558594 59.578125 25.15625 C 59.371094 25.367188 59.113281 25.535156 58.84375 25.753906 C 61.855469 28.683594 63.636719 32.035156 63.792969 36.191406 C 63.933594 39.847656 62.9375 43.097656 60.707031 45.984375 C 57.042969 50.722656 49.640625 53.75 41.835938 49.753906 C 41.820312 50.105469 41.796875 50.414062 41.792969 50.71875 C 41.746094 54.011719 41.875 57.316406 41.621094 60.589844 C 41.152344 66.675781 36.40625 71.964844 30.488281 73.3125 C 24.195312 74.742188 17.710938 72.058594 14.5 66.695312 C 10.902344 60.683594 11.785156 53.480469 16.734375 48.46875 C 16.898438 48.300781 17.054688 48.125 17.210938 47.949219 Z M 34.335938 44.242188 L 34.335938 29.527344 C 31.8125 29.527344 29.359375 29.519531 26.90625 29.53125 C 23.0625 29.546875 19.820312 32.710938 19.6875 36.570312 C 19.546875 40.515625 22.511719 44.003906 26.363281 44.214844 C 28.988281 44.355469 31.625 44.242188 34.335938 44.242188 Z M 41.855469 22.128906 C 44.382812 22.128906 46.804688 22.148438 49.222656 22.121094 C 53.253906 22.082031 56.441406 18.890625 56.492188 14.875 C 56.5 14.398438 56.457031 13.921875 56.371094 13.449219 C 56.285156 12.976562 56.15625 12.519531 55.976562 12.074219 C 55.800781 11.625 55.582031 11.203125 55.324219 10.796875 C 55.0625 10.394531 54.765625 10.023438 54.433594 9.675781 C 54.097656 9.332031 53.734375 9.023438 53.339844 8.75 C 52.945312 8.476562 52.53125 8.242188 52.089844 8.050781 C 51.648438 7.863281 51.195312 7.714844 50.726562 7.613281 C 50.257812 7.511719 49.785156 7.457031 49.304688 7.445312 C 46.972656 7.402344 44.640625 7.4375 42.308594 7.4375 C 42.167969 7.4375 42.023438 7.476562 41.855469 7.5 Z M 34.296875 7.472656 C 31.574219 7.472656 28.90625 7.308594 26.269531 7.511719 C 22.277344 7.8125 19.46875 11.273438 19.695312 15.296875 C 19.910156 19.117188 23.101562 22.101562 27.003906 22.125 C 28.648438 22.132812 30.296875 22.125 31.941406 22.125 L 34.296875 22.125 Z M 34.277344 51.652344 C 31.863281 51.652344 29.445312 51.574219 27.039062 51.683594 C 25.933594 51.734375 24.769531 51.980469 23.765625 52.433594 C 20.683594 53.808594 19.039062 57.480469 19.886719 60.761719 C 20.78125 64.207031 23.863281 66.492188 27.398438 66.332031 C 30.832031 66.175781 33.929688 63.585938 34.226562 60.21875 C 34.472656 57.4375 34.277344 54.617188 34.277344 51.652344 Z M 41.8125 36.890625 C 41.8125 41 45.050781 44.257812 49.136719 44.261719 C 53.179688 44.261719 56.492188 40.9375 56.492188 36.882812 C 56.492188 36.398438 56.445312 35.921875 56.347656 35.445312 C 56.253906 34.972656 56.113281 34.511719 55.929688 34.066406 C 55.742188 33.621094 55.515625 33.195312 55.25 32.796875 C 54.980469 32.394531 54.675781 32.023438 54.332031 31.679688 C 53.988281 31.339844 53.617188 31.035156 53.214844 30.765625 C 52.8125 30.5 52.390625 30.273438 51.941406 30.085938 C 51.496094 29.902344 51.035156 29.761719 50.5625 29.667969 C 50.089844 29.574219 49.609375 29.527344 49.125 29.527344 C 45.03125 29.53125 41.8125 32.773438 41.8125 36.890625 Z M 41.8125 36.890625 "/></g></svg>