<svg xmlns="http://www.w3.org/2000/svg" xmlns:xlink="http://www.w3.org/1999/xlink" width="100" zoomAndPan="magnify" viewBox="0 0 75 74.999997" height="100" preserveAspectRatio="xMidYMid meet" version="1.2"><defs><clipPath id="7f60f069b5"><path d="M 4.078125 0 L 70.828125 0 L 70.828125 75 L 4.078125 75 Z M 4.078125 0 "/></clipPath></defs><g id="6c9394dfc9"><g clip-rule="nonzero" clip-path="url(#7f60f069b5)"><path style=" stroke:none;fill-rule:nonzero;fill:#5bc0eb;fill-opacity:1;" d="M 70.460938 0.621094 C 70.152344 0.285156 69.71875 0.09375 69.261719 0.09375 L 5.804688 0.09375 C 5.351562 0.09375 4.917969 0.285156 4.609375 0.621094 C 4.300781 0.957031 4.148438 1.410156 4.1875 1.863281 L 9.90625 65.894531 C 9.964844 66.5625 10.429688 67.128906 11.078125 67.3125 L 37.082031 74.738281 C 37.226562 74.78125 37.375 74.800781 37.527344 74.800781 C 37.675781 74.800781 37.828125 74.78125 37.972656 74.738281 L 63.996094 67.3125 C 64.640625 67.128906 65.109375 66.5625 65.167969 65.894531 L 70.882812 1.863281 C 70.921875 1.40625 70.769531 0.957031 70.460938 0.621094 Z M 56.773438 22.699219 L 26.222656 22.699219 L 26.949219 30.964844 L 56.039062 30.964844 L 53.859375 55.390625 L 37.523438 60.332031 L 37.363281 60.28125 L 21.21875 55.390625 L 20.335938 45.433594 L 28.246094 45.433594 L 28.59375 49.300781 L 37.617188 51.191406 L 46.476562 49.296875 L 47.421875 38.847656 L 19.742188 38.847656 L 17.597656 14.796875 L 57.484375 14.796875 Z M 56.773438 22.699219 "/></g></g></svg>