<svg xmlns="http://www.w3.org/2000/svg" xmlns:xlink="http://www.w3.org/1999/xlink" width="100" zoomAndPan="magnify" viewBox="0 0 75 74.999997" height="100" preserveAspectRatio="xMidYMid meet" version="1.2"><g id="ea1fa8e127"><path style=" stroke:none;fill-rule:evenodd;fill:#5bc0eb;fill-opacity:1;" d="M 57.480469 69.121094 C 50.9375 69.121094 46.707031 66 44.644531 61.921875 L 50.378906 58.597656 C 51.890625 61.066406 53.851562 62.875 57.328125 62.875 C 60.246094 62.875 62.109375 61.414062 62.109375 59.402344 C 62.109375 56.371094 58.066406 55.1875 55.214844 53.964844 C 50.128906 51.800781 46.753906 49.082031 46.753906 43.339844 C 46.753906 38.054688 50.78125 34.03125 57.078125 34.03125 C 61.554688 34.03125 64.78125 35.589844 67.09375 39.664062 L 61.605469 43.191406 C 60.398438 41.027344 59.089844 40.171875 57.078125 40.171875 C 55.011719 40.171875 53.703125 41.480469 53.703125 43.191406 C 53.703125 45.304688 55.007812 46.160156 58.03125 47.46875 C 64.363281 50.183594 69.15625 52.316406 69.15625 59.300781 C 69.160156 65.648438 64.175781 69.121094 57.480469 69.121094 Z M 41.25 58.496094 C 41.25 65.796875 36.753906 69.65625 30.511719 69.65625 C 24.871094 69.65625 21.492188 67.5 19.828125 63.75 L 19.734375 63.75 L 25.464844 59.742188 C 26.574219 61.703125 27.570312 63.09375 29.984375 63.09375 C 32.300781 63.09375 33.75 61.921875 33.75 58.398438 L 33.75 33.75 L 41.25 33.75 Z M 0 75 L 75 75 L 75 0 L 0 0 Z M 0 75 "/></g></svg>