<svg xmlns="http://www.w3.org/2000/svg" xmlns:xlink="http://www.w3.org/1999/xlink" width="50" zoomAndPan="magnify" viewBox="0 0 37.5 37.499999" height="50" preserveAspectRatio="xMidYMid meet" version="1.2"><defs><clipPath id="f36c318b82"><path d="M 0 0.554688 L 37.007812 0.554688 L 37.007812 36.820312 L 0 36.820312 Z M 0 0.554688 "/></clipPath></defs><g id="f56e73d414"><path style=" stroke:none;fill-rule:nonzero;fill:#5bc0eb;fill-opacity:1;" d="M 9.3125 27.59375 C 9.234375 27.59375 9.15625 27.566406 9.09375 27.511719 C 9.015625 27.449219 8.96875 27.351562 8.96875 27.25 L 8.96875 16.375 C 8.96875 16.210938 9.089844 16.066406 9.25 16.039062 L 13.015625 15.347656 C 13.117188 15.328125 13.21875 15.355469 13.296875 15.421875 C 13.378906 15.488281 13.421875 15.585938 13.421875 15.6875 L 13.421875 26.558594 C 13.421875 26.726562 13.304688 26.867188 13.140625 26.898438 L 9.375 27.585938 C 9.355469 27.589844 9.335938 27.59375 9.3125 27.59375 Z M 9.660156 16.664062 L 9.660156 26.835938 L 12.734375 26.273438 L 12.734375 16.101562 Z M 9.660156 16.664062 "/><path style=" stroke:none;fill-rule:nonzero;fill:#5bc0eb;fill-opacity:1;" d="M 15.980469 27.59375 C 15.898438 27.59375 15.820312 27.566406 15.757812 27.511719 C 15.679688 27.449219 15.636719 27.351562 15.636719 27.25 L 15.636719 15.6875 C 15.636719 15.519531 15.753906 15.378906 15.917969 15.347656 L 19.683594 14.660156 C 19.78125 14.640625 19.886719 14.667969 19.964844 14.734375 C 20.042969 14.796875 20.089844 14.894531 20.089844 14.996094 L 20.089844 15.832031 C 20.089844 15.878906 20.078125 15.925781 20.0625 15.96875 L 19.859375 16.441406 C 21.128906 15.25 22.457031 14.644531 23.820312 14.644531 C 24.90625 14.644531 25.980469 15.097656 26.769531 15.886719 C 27.53125 16.65625 27.953125 17.671875 27.949219 18.75 L 27.949219 26.550781 C 27.949219 26.71875 27.828125 26.859375 27.664062 26.890625 L 23.902344 27.582031 C 23.800781 27.597656 23.695312 27.570312 23.617188 27.507812 C 23.539062 27.441406 23.496094 27.34375 23.496094 27.242188 L 23.496094 19.257812 C 23.144531 18.46875 22.734375 18.46875 22.597656 18.46875 C 21.730469 18.46875 20.574219 19.757812 20.125 20.355469 L 20.125 26.558594 C 20.125 26.726562 20.003906 26.867188 19.839844 26.898438 L 16.042969 27.585938 C 16.019531 27.589844 16 27.59375 15.980469 27.59375 Z M 16.324219 15.972656 L 16.324219 26.835938 L 19.433594 26.269531 L 19.433594 20.242188 C 19.433594 20.171875 19.457031 20.101562 19.5 20.042969 C 19.664062 19.8125 21.171875 17.777344 22.597656 17.777344 C 23.066406 17.777344 23.71875 18 24.15625 19.058594 C 24.175781 19.097656 24.183594 19.144531 24.183594 19.1875 L 24.183594 26.828125 L 27.257812 26.265625 L 27.257812 18.746094 C 27.261719 17.851562 26.914062 17.011719 26.28125 16.375 C 25.621094 15.714844 24.722656 15.335938 23.820312 15.335938 C 22.164062 15.335938 20.539062 16.394531 18.980469 18.480469 C 18.875 18.617188 18.683594 18.65625 18.53125 18.570312 C 18.378906 18.484375 18.316406 18.296875 18.386719 18.136719 L 19.398438 15.761719 L 19.398438 15.410156 Z M 16.324219 15.972656 "/><path style=" stroke:none;fill-rule:nonzero;fill:#5bc0eb;fill-opacity:1;" d="M 11.167969 13.777344 C 9.960938 13.777344 8.976562 12.796875 8.976562 11.59375 C 8.976562 10.386719 9.960938 9.40625 11.167969 9.40625 C 12.378906 9.40625 13.359375 10.386719 13.359375 11.59375 C 13.359375 12.796875 12.378906 13.777344 11.167969 13.777344 Z M 11.167969 10.097656 C 10.339844 10.097656 9.664062 10.765625 9.664062 11.59375 C 9.664062 12.417969 10.339844 13.089844 11.167969 13.089844 C 11.996094 13.089844 12.671875 12.417969 12.671875 11.59375 C 12.671875 10.765625 11.996094 10.097656 11.167969 10.097656 Z M 11.167969 10.097656 "/><g clip-rule="nonzero" clip-path="url(#f36c318b82)"><path style=" stroke:none;fill-rule:nonzero;fill:#5bc0eb;fill-opacity:1;" d="M 19.027344 36.453125 C 14.671875 36.453125 10.476562 34.875 7.195312 32.011719 L 0.421875 33.152344 C 0.296875 33.171875 0.167969 33.121094 0.0898438 33.019531 C 0.0117188 32.914062 0 32.777344 0.0546875 32.660156 L 2.984375 26.605469 C 1.703125 24.082031 1.054688 21.355469 1.054688 18.5 C 1.054688 13.707031 2.925781 9.199219 6.320312 5.8125 C 9.714844 2.421875 14.230469 0.554688 19.035156 0.554688 C 23.835938 0.554688 28.347656 2.421875 31.742188 5.8125 C 35.136719 9.199219 37.007812 13.707031 37.007812 18.5 C 37.007812 23.292969 35.136719 27.800781 31.742188 31.191406 C 28.347656 34.578125 23.832031 36.449219 19.027344 36.453125 Z M 7.300781 31.300781 C 7.382812 31.300781 7.464844 31.332031 7.53125 31.390625 C 10.699219 34.210938 14.785156 35.761719 19.027344 35.761719 C 28.5625 35.753906 36.316406 28.011719 36.316406 18.5 C 36.316406 8.984375 28.5625 1.246094 19.035156 1.246094 C 9.5 1.246094 1.746094 8.984375 1.746094 18.5 C 1.746094 21.300781 2.394531 23.972656 3.675781 26.441406 C 3.726562 26.539062 3.730469 26.652344 3.679688 26.75 L 0.964844 32.359375 L 7.242188 31.304688 C 7.261719 31.304688 7.28125 31.300781 7.300781 31.300781 Z M 7.300781 31.300781 "/></g></g></svg>