<svg xmlns="http://www.w3.org/2000/svg" xmlns:xlink="http://www.w3.org/1999/xlink" width="50" zoomAndPan="magnify" viewBox="0 0 37.5 37.499999" height="50" preserveAspectRatio="xMidYMid meet" version="1.2"><defs><clipPath id="5442f357f7"><path d="M 0 0 L 37.007812 0 L 37.007812 37.007812 L 0 37.007812 Z M 0 0 "/></clipPath></defs><g id="9e164e9340"><path style=" stroke:none;fill-rule:nonzero;fill:#5bc0eb;fill-opacity:1;" d="M 8.628906 13.421875 L 11.363281 13.421875 C 11.507812 13.421875 11.632812 13.472656 11.734375 13.574219 C 11.839844 13.675781 11.890625 13.800781 11.890625 13.945312 L 11.890625 29 C 11.890625 29.148438 11.839844 29.269531 11.734375 29.371094 C 11.632812 29.476562 11.507812 29.527344 11.363281 29.527344 L 8.628906 29.527344 C 8.480469 29.527344 8.359375 29.476562 8.257812 29.371094 C 8.152344 29.269531 8.101562 29.148438 8.101562 29 L 8.101562 13.945312 C 8.101562 13.800781 8.152344 13.675781 8.257812 13.574219 C 8.359375 13.472656 8.480469 13.421875 8.628906 13.421875 Z M 8.628906 13.421875 "/><path style=" stroke:none;fill-rule:nonzero;fill:#5bc0eb;fill-opacity:1;" d="M 12.199219 9.707031 C 12.195312 8.417969 11.269531 7.480469 9.996094 7.480469 C 8.722656 7.480469 7.761719 8.441406 7.761719 9.714844 C 7.761719 10.308594 7.976562 10.859375 8.371094 11.269531 C 8.773438 11.6875 9.328125 11.921875 9.933594 11.921875 C 10.605469 11.921875 11.203125 11.683594 11.621094 11.253906 C 12.011719 10.847656 12.214844 10.304688 12.199219 9.714844 C 12.199219 9.714844 12.199219 9.710938 12.199219 9.707031 Z M 12.199219 9.707031 "/><path style=" stroke:none;fill-rule:nonzero;fill:#5bc0eb;fill-opacity:1;" d="M 27.195312 14.480469 C 25.832031 13.261719 24.234375 13.078125 23.402344 13.078125 C 22.160156 13.078125 20.976562 13.410156 19.980469 14.039062 C 19.546875 14.3125 19.152344 14.636719 18.800781 15.015625 L 18.730469 13.914062 C 18.722656 13.773438 18.667969 13.65625 18.566406 13.5625 C 18.464844 13.46875 18.34375 13.421875 18.207031 13.421875 L 15.78125 13.421875 C 15.628906 13.421875 15.5 13.476562 15.398438 13.589844 C 15.292969 13.699219 15.246094 13.832031 15.257812 13.984375 C 15.34375 15.132812 15.378906 16.339844 15.378906 18.019531 L 15.378906 29 C 15.378906 29.148438 15.433594 29.269531 15.535156 29.371094 C 15.636719 29.476562 15.761719 29.527344 15.90625 29.527344 L 18.644531 29.527344 C 18.789062 29.527344 18.910156 29.476562 19.015625 29.371094 C 19.117188 29.269531 19.167969 29.148438 19.167969 29 L 19.167969 19.949219 C 19.167969 19.523438 19.222656 19.125 19.324219 18.855469 C 19.324219 18.84375 19.328125 18.835938 19.332031 18.828125 C 19.703125 17.621094 20.824219 16.398438 22.5 16.398438 C 23.539062 16.398438 24.28125 16.753906 24.777344 17.484375 C 25.222656 18.140625 25.457031 19.125 25.457031 20.324219 L 25.457031 29 C 25.457031 29.148438 25.507812 29.269531 25.613281 29.371094 C 25.714844 29.476562 25.839844 29.527344 25.984375 29.527344 L 28.722656 29.527344 C 28.867188 29.527344 28.988281 29.476562 29.09375 29.371094 C 29.195312 29.269531 29.246094 29.148438 29.246094 29 L 29.246094 20.011719 C 29.246094 18.730469 29.050781 17.597656 28.671875 16.636719 C 28.328125 15.777344 27.832031 15.050781 27.195312 14.480469 Z M 27.195312 14.480469 "/><g clip-rule="nonzero" clip-path="url(#5442f357f7)"><path style=" stroke:none;fill-rule:nonzero;fill:#5bc0eb;fill-opacity:1;" d="M 32.1875 0 L 4.816406 0 C 2.160156 0 0 2.160156 0 4.816406 L 0 32.1875 C 0 34.84375 2.160156 37.007812 4.816406 37.007812 L 32.1875 37.007812 C 34.84375 37.007812 37.007812 34.84375 37.007812 32.1875 L 37.007812 4.816406 C 37.007812 2.160156 34.84375 0 32.1875 0 Z M 33.625 5.050781 L 33.625 31.957031 C 33.625 32.175781 33.582031 32.390625 33.496094 32.59375 C 33.410156 32.796875 33.289062 32.976562 33.132812 33.132812 C 32.976562 33.289062 32.796875 33.410156 32.59375 33.496094 C 32.390625 33.582031 32.175781 33.625 31.957031 33.625 L 5.050781 33.625 C 4.828125 33.625 4.617188 33.582031 4.414062 33.496094 C 4.207031 33.410156 4.027344 33.289062 3.871094 33.132812 C 3.714844 32.976562 3.59375 32.796875 3.511719 32.59375 C 3.425781 32.390625 3.382812 32.175781 3.382812 31.957031 L 3.382812 5.050781 C 3.382812 4.828125 3.425781 4.617188 3.511719 4.414062 C 3.59375 4.207031 3.714844 4.027344 3.871094 3.871094 C 4.027344 3.714844 4.207031 3.59375 4.414062 3.511719 C 4.617188 3.425781 4.828125 3.382812 5.050781 3.382812 L 31.957031 3.382812 C 32.175781 3.382812 32.390625 3.425781 32.59375 3.511719 C 32.796875 3.59375 32.976562 3.714844 33.132812 3.871094 C 33.289062 4.027344 33.410156 4.207031 33.496094 4.414062 C 33.582031 4.617188 33.625 4.828125 33.625 5.050781 Z M 33.625 5.050781 "/></g></g></svg>