<svg xmlns="http://www.w3.org/2000/svg" xmlns:xlink="http://www.w3.org/1999/xlink" width="100" zoomAndPan="magnify" viewBox="0 0 75 74.999997" height="100" preserveAspectRatio="xMidYMid meet" version="1.2"><defs><clipPath id="a5383173e3"><path d="M 4.226562 0 L 70.976562 0 L 70.976562 75 L 4.226562 75 Z M 4.226562 0 "/></clipPath></defs><g id="300b5f63a9"><g clip-rule="nonzero" clip-path="url(#a5383173e3)"><path style=" stroke:none;fill-rule:nonzero;fill:#5bc0eb;fill-opacity:1;" d="M 37.496094 74.988281 C 36.464844 74.988281 35.503906 74.714844 34.613281 74.234375 L 25.476562 68.808594 C 24.105469 68.054688 24.792969 67.78125 25.203125 67.640625 C 27.058594 67.023438 27.402344 66.886719 29.324219 65.785156 C 29.53125 65.648438 29.804688 65.71875 30.011719 65.855469 L 37.015625 70.042969 C 37.289062 70.183594 37.632812 70.183594 37.839844 70.042969 L 65.242188 54.183594 C 65.515625 54.042969 65.652344 53.769531 65.652344 53.425781 L 65.652344 21.765625 C 65.652344 21.421875 65.515625 21.144531 65.242188 21.007812 L 37.839844 5.210938 C 37.566406 5.074219 37.222656 5.074219 37.015625 5.210938 L 9.613281 21.007812 C 9.339844 21.144531 9.199219 21.488281 9.199219 21.765625 L 9.199219 53.425781 C 9.199219 53.699219 9.339844 54.042969 9.613281 54.183594 L 17.097656 58.507812 C 21.152344 60.566406 23.691406 58.164062 23.691406 55.761719 L 23.691406 24.511719 C 23.691406 24.097656 24.035156 23.6875 24.515625 23.6875 L 28.019531 23.6875 C 28.429688 23.6875 28.84375 24.03125 28.84375 24.511719 L 28.84375 55.761719 C 28.84375 61.1875 25.890625 64.347656 20.738281 64.347656 C 19.160156 64.347656 17.921875 64.347656 14.421875 62.628906 L 7.210938 58.507812 C 5.421875 57.480469 4.324219 55.554688 4.324219 53.496094 L 4.324219 21.835938 C 4.324219 19.773438 5.421875 17.851562 7.210938 16.820312 L 34.613281 0.953125 C 36.328125 -0.0078125 38.664062 -0.0078125 40.382812 0.953125 L 67.785156 16.820312 C 69.570312 17.851562 70.667969 19.773438 70.667969 21.832031 L 70.667969 53.496094 C 70.667969 55.554688 69.570312 57.476562 67.785156 58.507812 L 40.382812 74.371094 C 39.488281 74.785156 38.457031 74.988281 37.496094 74.988281 Z M 45.945312 53.21875 C 33.925781 53.21875 31.453125 47.722656 31.453125 43.054688 C 31.453125 42.640625 31.796875 42.230469 32.277344 42.230469 L 35.847656 42.230469 C 36.261719 42.230469 36.601562 42.503906 36.601562 42.917969 C 37.152344 46.558594 38.734375 48.34375 46.011719 48.34375 C 51.78125 48.34375 54.253906 47.035156 54.253906 43.949219 C 54.253906 42.164062 53.566406 40.855469 44.570312 39.964844 C 37.085938 39.207031 32.414062 37.558594 32.414062 31.585938 C 32.414062 26.023438 37.085938 22.726562 44.914062 22.726562 C 53.703125 22.726562 58.03125 25.746094 58.582031 32.339844 C 58.582031 32.546875 58.511719 32.753906 58.375 32.960938 C 58.238281 33.097656 58.03125 33.234375 57.824219 33.234375 L 54.253906 33.234375 C 53.910156 33.234375 53.566406 32.960938 53.5 32.613281 C 52.675781 28.839844 50.546875 27.601562 44.914062 27.601562 C 38.59375 27.601562 37.839844 29.800781 37.839844 31.449219 C 37.839844 33.4375 38.734375 34.058594 47.25 35.15625 C 55.699219 36.257812 59.679688 37.835938 59.679688 43.742188 C 59.609375 49.785156 54.664062 53.21875 45.945312 53.21875 Z M 45.945312 53.21875 "/></g></g></svg>