<svg xmlns="http://www.w3.org/2000/svg" xmlns:xlink="http://www.w3.org/1999/xlink" width="100" zoomAndPan="magnify" viewBox="0 0 75 74.999997" height="100" preserveAspectRatio="xMidYMid meet" version="1.2"><g id="5ad5c93447"><path style=" stroke:none;fill-rule:nonzero;fill:#5bc0eb;fill-opacity:1;" d="M 21.914062 56.945312 C 20.636719 56.945312 19.597656 55.90625 19.597656 54.628906 L 19.597656 46.726562 C 19.691406 41.515625 22.992188 38.425781 28.421875 38.425781 L 45.367188 38.425781 C 52.417969 38.425781 56.628906 34.457031 56.628906 27.808594 L 56.628906 19.90625 C 56.628906 18.628906 57.667969 17.59375 58.945312 17.59375 C 60.222656 17.59375 61.257812 18.628906 61.257812 19.90625 L 61.257812 27.625 C 61.257812 37.070312 55.023438 43.054688 45.367188 43.054688 L 28.421875 43.054688 C 24.785156 43.054688 24.257812 44.933594 24.226562 46.773438 L 24.226562 54.628906 C 24.226562 55.90625 23.191406 56.945312 21.914062 56.945312 Z M 21.914062 56.945312 "/><path style=" stroke:none;fill-rule:nonzero;fill:#5bc0eb;fill-opacity:1;" d="M 37.867188 74.691406 C 34.886719 74.691406 31.84375 74.457031 28.945312 73.984375 C 23.261719 73.023438 19.597656 68.660156 19.597656 62.871094 L 19.597656 46.726562 C 19.597656 45.449219 20.636719 44.414062 21.914062 44.414062 C 23.191406 44.414062 24.226562 45.449219 24.226562 46.726562 L 24.226562 62.867188 C 24.226562 66.390625 26.273438 68.832031 29.703125 69.414062 C 35.066406 70.285156 40.953125 70.277344 45.84375 69.382812 C 48.734375 68.890625 50.546875 68.15625 51.40625 67.140625 C 52.101562 66.316406 52.398438 65.039062 52.398438 62.863281 L 52.398438 55.394531 L 39.65625 55.394531 C 38.375 55.394531 37.339844 54.359375 37.339844 53.082031 C 37.339844 51.800781 38.375 50.765625 39.65625 50.765625 L 54.714844 50.765625 C 55.992188 50.765625 57.027344 51.800781 57.027344 53.082031 L 57.027344 62.863281 C 57.027344 65.101562 56.789062 67.945312 54.933594 70.132812 C 53.324219 72.035156 50.691406 73.246094 46.648438 73.9375 C 43.933594 74.441406 40.933594 74.691406 37.867188 74.691406 Z M 37.867188 74.691406 "/><path style=" stroke:none;fill-rule:nonzero;fill:#5bc0eb;fill-opacity:1;" d="M 61.074219 55.402344 L 54.714844 55.402344 C 53.4375 55.402344 52.402344 54.363281 52.402344 53.085938 C 52.402344 51.808594 53.4375 50.773438 54.714844 50.773438 L 61.074219 50.773438 C 65.535156 50.773438 67.65625 49.191406 68.640625 45.136719 C 70.128906 38.90625 70.128906 35.285156 68.636719 28.992188 C 67.285156 23.375 65.261719 22.222656 62.648438 22.222656 L 61.257812 22.222656 L 61.257812 27.625 C 61.257812 28.902344 60.222656 30.03125 58.945312 30.03125 C 57.667969 30.03125 56.628906 29.082031 56.628906 27.804688 L 56.628906 19.90625 C 56.628906 18.628906 57.667969 17.59375 58.945312 17.59375 L 62.648438 17.59375 C 69.824219 17.59375 72.070312 23.480469 73.140625 27.914062 C 74.789062 34.875 74.789062 39.320312 73.140625 46.21875 C 71.667969 52.3125 67.609375 55.402344 61.074219 55.402344 Z M 61.074219 55.402344 "/><path style=" stroke:none;fill-rule:nonzero;fill:#5bc0eb;fill-opacity:1;" d="M 43.515625 67.746094 C 40.535156 67.746094 38.113281 65.320312 38.113281 62.339844 C 38.113281 59.363281 40.535156 56.945312 43.515625 56.945312 C 46.492188 56.945312 48.917969 59.363281 48.917969 62.339844 C 48.886719 65.332031 46.464844 67.746094 43.515625 67.746094 Z M 43.515625 61.574219 C 43.089844 61.574219 42.742188 61.917969 42.742188 62.339844 C 42.742188 63.179688 44.277344 63.191406 44.285156 62.316406 C 44.285156 61.917969 43.9375 61.574219 43.515625 61.574219 Z M 43.515625 61.574219 "/><path style=" stroke:none;fill-rule:nonzero;fill:#5bc0eb;fill-opacity:1;" d="M 15.746094 57.714844 C 14.46875 57.714844 13.433594 56.679688 13.433594 55.402344 L 13.433594 47.683594 C 13.433594 38.238281 19.667969 32.253906 29.324219 32.253906 L 46.269531 32.253906 C 49.90625 32.253906 50.433594 30.375 50.464844 28.539062 L 50.464844 20.679688 C 50.464844 19.402344 51.5 18.363281 52.777344 18.363281 C 54.054688 18.363281 55.09375 19.402344 55.09375 20.679688 L 55.09375 28.582031 C 55 33.796875 51.699219 36.882812 46.269531 36.882812 L 29.324219 36.882812 C 22.273438 36.882812 18.0625 40.851562 18.0625 47.5 L 18.0625 55.402344 C 18.0625 56.679688 17.023438 57.714844 15.746094 57.714844 Z M 15.746094 57.714844 "/><path style=" stroke:none;fill-rule:nonzero;fill:#5bc0eb;fill-opacity:1;" d="M 52.777344 30.898438 C 51.5 30.898438 50.464844 29.859375 50.464844 28.582031 L 50.464844 12.4375 C 50.464844 8.917969 48.417969 6.472656 44.988281 5.890625 C 39.625 5.023438 33.738281 5.027344 28.847656 5.921875 C 25.957031 6.417969 24.144531 7.148438 23.285156 8.160156 C 22.585938 8.984375 22.289062 10.261719 22.289062 12.4375 L 22.289062 19.90625 L 35.035156 19.90625 C 36.3125 19.90625 37.347656 20.945312 37.347656 22.222656 C 37.347656 23.5 36.3125 24.535156 35.035156 24.535156 L 19.976562 24.535156 C 18.699219 24.535156 17.660156 23.5 17.660156 22.222656 L 17.660156 12.4375 C 17.660156 10.199219 17.898438 7.359375 19.753906 5.167969 C 21.363281 3.269531 23.996094 2.054688 28.039062 1.363281 C 33.410156 0.390625 39.871094 0.371094 45.746094 1.328125 C 51.433594 2.289062 55.09375 6.652344 55.09375 12.441406 L 55.09375 28.582031 C 55.09375 29.859375 54.058594 30.898438 52.777344 30.898438 Z M 52.777344 30.898438 "/><path style=" stroke:none;fill-rule:nonzero;fill:#5bc0eb;fill-opacity:1;" d="M 15.746094 57.714844 L 12.042969 57.714844 C 4.867188 57.714844 2.621094 51.828125 1.550781 47.394531 C -0.0976562 40.433594 -0.0976562 35.988281 1.550781 29.089844 C 3.023438 22.996094 7.082031 19.90625 13.617188 19.90625 L 19.976562 19.90625 C 21.253906 19.90625 22.289062 20.945312 22.289062 22.222656 C 22.289062 23.5 21.253906 24.535156 19.976562 24.535156 L 13.617188 24.535156 C 9.15625 24.535156 7.035156 26.117188 6.050781 30.171875 C 4.5625 36.40625 4.5625 40.023438 6.054688 46.316406 C 7.40625 51.933594 9.429688 53.085938 12.042969 53.085938 L 13.433594 53.085938 L 13.433594 47.683594 C 13.433594 46.40625 14.46875 45.277344 15.746094 45.277344 C 17.023438 45.277344 18.0625 46.226562 18.0625 47.503906 L 18.0625 55.40625 C 18.0625 56.679688 17.023438 57.714844 15.746094 57.714844 Z M 15.746094 57.714844 "/><path style=" stroke:none;fill-rule:nonzero;fill:#5bc0eb;fill-opacity:1;" d="M 31.175781 18.363281 C 28.199219 18.363281 25.773438 15.945312 25.773438 12.96875 C 25.800781 9.976562 28.226562 7.5625 31.175781 7.5625 C 34.15625 7.5625 36.578125 9.988281 36.578125 12.96875 C 36.578125 15.945312 34.15625 18.363281 31.175781 18.363281 Z M 31.175781 12.191406 C 30.746094 12.191406 30.40625 12.542969 30.40625 12.992188 C 30.40625 13.792969 31.949219 13.816406 31.949219 12.96875 C 31.949219 12.554688 31.589844 12.191406 31.175781 12.191406 Z M 31.175781 12.191406 "/></g></svg>