<svg xmlns="http://www.w3.org/2000/svg" xmlns:xlink="http://www.w3.org/1999/xlink" width="100" zoomAndPan="magnify" viewBox="0 0 75 74.999997" height="100" preserveAspectRatio="xMidYMid meet" version="1.2"><g id="3b8cf91647"><path style=" stroke:none;fill-rule:nonzero;fill:#5bc0eb;fill-opacity:1;" d="M 44.019531 37.300781 C 44.019531 33.726562 41.035156 30.832031 37.347656 30.832031 C 33.664062 30.832031 30.679688 33.726562 30.679688 37.300781 C 30.679688 40.871094 33.664062 43.765625 37.347656 43.765625 C 41.035156 43.765625 44.019531 40.871094 44.019531 37.300781 Z M 44.019531 37.300781 "/><path style=" stroke:none;fill-rule:evenodd;fill:#5bc0eb;fill-opacity:1;" d="M 59.011719 25.292969 C 60.421875 19.742188 62.191406 9.449219 55.949219 5.960938 C 49.738281 2.488281 41.652344 9.144531 37.382812 13.140625 C 33.128906 9.183594 24.816406 2.554688 18.578125 6.054688 C 12.367188 9.542969 14.285156 19.664062 15.722656 25.246094 C 9.929688 26.84375 0 30.277344 0 37.300781 C 0 44.300781 9.921875 48.039062 15.679688 49.632812 C 14.234375 55.246094 12.414062 65.222656 18.632812 68.703125 C 24.894531 72.203125 33.179688 65.730469 37.488281 61.691406 C 41.785156 65.710938 49.789062 72.222656 56.003906 68.738281 C 62.238281 65.238281 60.613281 55.082031 59.175781 49.46875 C 64.757812 47.871094 74.699219 44.210938 74.699219 37.300781 C 74.699219 30.347656 64.714844 26.882812 59.011719 25.292969 Z M 58.304688 46.488281 C 57.359375 43.589844 56.082031 40.503906 54.523438 37.316406 C 56.011719 34.203125 57.238281 31.15625 58.160156 28.273438 C 62.339844 29.449219 71.507812 32.132812 71.507812 37.300781 C 71.507812 42.511719 62.707031 45.222656 58.304688 46.488281 Z M 54.40625 66.058594 C 49.769531 68.660156 42.882812 62.433594 39.710938 59.472656 C 41.8125 57.238281 43.917969 54.644531 45.972656 51.761719 C 49.582031 51.453125 52.992188 50.945312 56.085938 50.25 C 57.101562 54.226562 59.0625 63.445312 54.40625 66.058594 Z M 20.226562 66.023438 C 15.589844 63.429688 17.710938 54.527344 18.773438 50.390625 C 21.832031 51.046875 25.21875 51.519531 28.839844 51.804688 C 30.90625 54.621094 33.070312 57.214844 35.25 59.484375 C 32.558594 62.011719 24.886719 68.625 20.226562 66.023438 Z M 3.191406 37.300781 C 3.191406 32.066406 12.304688 29.398438 16.582031 28.226562 C 17.515625 31.175781 18.742188 34.257812 20.222656 37.375 C 18.722656 40.539062 17.480469 43.667969 16.535156 46.652344 C 12.460938 45.519531 3.191406 42.535156 3.191406 37.300781 Z M 20.179688 8.734375 C 24.832031 6.121094 32.058594 12.484375 35.148438 15.347656 C 32.976562 17.609375 30.832031 20.179688 28.785156 22.984375 C 25.273438 23.300781 21.910156 23.804688 18.816406 24.484375 C 17.65625 19.980469 15.527344 11.34375 20.179688 8.734375 Z M 48.253906 26.347656 C 50.636719 26.636719 52.921875 27.027344 55.066406 27.5 C 54.421875 29.5 53.617188 31.59375 52.675781 33.738281 C 51.304688 31.21875 49.832031 28.75 48.253906 26.347656 Z M 37.386719 17.558594 C 38.855469 19.105469 40.332031 20.832031 41.78125 22.703125 C 38.839844 22.570312 35.894531 22.570312 32.953125 22.703125 C 34.402344 20.847656 35.890625 19.125 37.386719 17.558594 Z M 22.050781 33.734375 C 21.125 31.597656 20.328125 29.496094 19.679688 27.46875 C 21.808594 27.003906 24.082031 26.628906 26.449219 26.339844 C 24.867188 28.738281 23.398438 31.207031 22.050781 33.734375 Z M 26.519531 48.480469 C 24.074219 48.214844 21.765625 47.855469 19.632812 47.40625 C 20.292969 45.339844 21.105469 43.195312 22.054688 41.011719 C 23.421875 43.566406 24.910156 46.058594 26.519531 48.480469 Z M 37.472656 57.257812 C 35.960938 55.675781 34.453125 53.925781 32.980469 52.042969 C 35.9375 52.15625 38.902344 52.15625 41.859375 52.027344 C 40.402344 53.945312 38.933594 55.695312 37.472656 57.257812 Z M 52.703125 40.902344 C 53.703125 43.105469 54.542969 45.242188 55.210938 47.273438 C 53.046875 47.75 50.707031 48.136719 48.246094 48.421875 C 49.835938 45.976562 51.332031 43.46875 52.703125 40.902344 Z M 44.191406 48.796875 C 39.664062 49.113281 35.113281 49.109375 30.585938 48.824219 C 28.015625 45.179688 25.726562 41.351562 23.75 37.375 C 25.714844 33.40625 27.988281 29.582031 30.546875 25.945312 C 35.078125 25.613281 39.632812 25.613281 44.164062 25.945312 C 46.703125 29.582031 48.972656 33.398438 50.984375 37.328125 C 48.996094 41.296875 46.710938 45.128906 44.191406 48.796875 Z M 54.355469 8.640625 C 59.011719 11.246094 56.941406 20.496094 55.921875 24.519531 C 52.824219 23.824219 49.457031 23.308594 45.933594 22.988281 C 43.882812 20.152344 41.757812 17.578125 39.621094 15.347656 C 42.75 12.421875 49.746094 6.0625 54.355469 8.640625 Z M 54.355469 8.640625 "/></g></svg>