<svg xmlns="http://www.w3.org/2000/svg" xmlns:xlink="http://www.w3.org/1999/xlink" width="100" zoomAndPan="magnify" viewBox="0 0 75 74.999997" height="100" preserveAspectRatio="xMidYMid meet" version="1.2"><g id="917037bc46"><path style=" stroke:none;fill-rule:nonzero;fill:#5bc0eb;fill-opacity:1;" d="M 37.5 75 C 58.210938 75 75 58.210938 75 37.5 C 75 16.789062 58.210938 0 37.5 0 C 16.789062 0 0 16.789062 0 37.5 C 0 58.210938 16.789062 75 37.5 75 Z M 20.035156 21.121094 C 24.875 16.59375 31.609375 13.121094 37.824219 10.914062 C 48.277344 7.195312 59.324219 9.386719 61.019531 16.054688 L 60.789062 15.84375 C 62.429688 22.40625 56.757812 30.238281 49.496094 33.046875 C 43.027344 35.574219 37.632812 35.15625 35.433594 34.453125 C 32.898438 33.609375 31.445312 31.96875 31.070312 31.03125 C 30.929688 30.65625 30.695312 30.046875 31.070312 29.859375 C 31.304688 29.714844 31.398438 29.761719 32.054688 30.464844 C 32.664062 31.125 35.054688 32.902344 39.648438 32.386719 C 51.695312 31.03125 58.914062 21.699219 56.621094 16.6875 C 55.027344 13.171875 45.789062 11.574219 34.210938 17.34375 C 20.101562 24.375 19.304688 30.183594 19.210938 32.386719 C 18.882812 38.433594 26.710938 41.621094 30.929688 46.167969 C 31.070312 46.261719 31.164062 46.355469 31.257812 46.496094 C 32.523438 45.980469 34.304688 45.746094 37.117188 45.695312 C 43.960938 45.605469 47.804688 50.101562 47.664062 54.132812 C 47.523438 57.324219 44.617188 58.636719 44.101562 58.730469 C 43.726562 58.777344 43.492188 58.777344 43.445312 58.496094 C 43.398438 58.304688 43.539062 58.214844 44.007812 57.929688 C 44.480469 57.648438 45.835938 56.664062 46.117188 54.980469 C 46.398438 53.292969 45.085938 49.167969 38.523438 48.417969 C 36.179688 48.132812 34.351562 48.320312 32.804688 48.742188 C 33.933594 51.226562 34.164062 56.289062 31.539062 60.230469 C 28.820312 64.257812 23.757812 66.746094 18.835938 65.382812 C 17.242188 64.964844 14.804688 61.679688 16.914062 57.085938 C 18.882812 52.726562 27.289062 48.507812 28.433594 47.945312 L 28.433594 47.929688 C 24.539062 44.574219 15.070312 40.054688 13.738281 33.148438 C 13.359375 31.1875 14.273438 26.5 20.035156 21.121094 Z M 20.035156 21.121094 "/><path style=" stroke:none;fill-rule:nonzero;fill:#5bc0eb;fill-opacity:1;" d="M 21.257812 61.753906 C 22.566406 62.507812 25.609375 61.609375 27.789062 59.238281 C 28.507812 58.457031 29.085938 57.613281 29.523438 56.707031 C 29.605469 56.53125 29.695312 56.347656 29.769531 56.15625 L 29.972656 55.59375 C 30.535156 53.894531 30.59375 52.007812 30.046875 49.992188 L 29.710938 50.183594 L 29.710938 50.195312 C 29.710938 50.195312 25.804688 52.039062 23.085938 54.910156 C 20.554688 57.582031 19.851562 60.933594 21.257812 61.753906 Z M 21.257812 61.753906 "/></g></svg>